# AST/ASF file generated using VICON BodyLanguage
# -----------------------------------------------
:version 1.10
:name VICON
:units
  mass 1.0
  length 0.45
  angle deg
:documentation
   .ast/.asf automatically generated from VICON data using
   VICON BodyBuilder and BodyLanguage model FoxedUp or BRILLIANT.MOD
:root
   order TX TY TZ RX RY RZ
   axis XYZ
   position 0 0 0  
   orientation 0 0 0 
:bonedata
  begin
     id 1 
     name lhipjoint
     direction 0.589753 -0.68606 0.426044 
     length 2.54082 
     axis 0 0 0  XYZ
  end
  begin
     id 2 
     name lfemur
     direction 0.34202 -0.939693 0  
     length 7.04539  
     axis 0 0 20  XYZ
    dof rx ry rz
    limits (-160.0 20.0)
           (-70.0 70.0)
           (-60.0 70.0)
  end
  begin
     id 3 
     name ltibia
     direction 0.34202 -0.939693 0   
     length 7.83772   
     axis 0 0 20   XYZ
    dof rx
    limits (-10.0 170.0)
  end
  begin
     id 4 
     name lfoot
     direction 0.0596604 -0.163915 0.984669   
     length 2.39542   
     axis -90 7.62852e-016 20   XYZ
    dof rx rz
    limits (-45.0 90.0)
           (-70.0 20.0)
  end
  begin
     id 5 
     name ltoes
     direction 1.53514e-011 -4.21954e-011 1   
     length 1.2047   
     axis -90 7.62852e-016 20   XYZ
    dof rx
    limits (-90.0 20.0)
  end
  begin
     id 6 
     name rhipjoint
     direction -0.580585 -0.69168 0.429534   
     length 2.52018  
     axis 0 0 0  XYZ 
  end
  begin
     id 7 
     name rfemur
     direction -0.34202 -0.939693 0   
     length 7.0101   
     axis 0 0 -20   XYZ
    dof rx ry rz
    limits (-160.0 20.0)
           (-70.0 70.0)
           (-70.0 60.0)
  end
  begin
     id 8 
     name rtibia
     direction -0.34202 -0.939693 0   
     length 7.70628   
     axis 0 0 -20   XYZ
    dof rx
    limits (-10.0 170.0)
 end
 begin
     id 9 
     name rfoot
     direction -0.0696237 -0.19129 0.979061   
     length 2.52466  
     axis -90 -7.62852e-016 -20   XYZ
    dof rx rz
    limits (-45.0 90.0)
           (-20.0 70.0)
  end
  begin
     id 10 
     name rtoes
     direction -1.53519e-011 -4.21793e-011 1   
     length 1.266   
     axis -90 -7.62852e-016 -20   XYZ
    dof rx
    limits (-90.0 20.0)
  end
  begin
     id 11 
     name lowerback
     direction 0.00381965 0.995707 -0.0924856   
     length 2.20825   
     axis 0 0 0   XYZ
    dof rx ry rz
    limits (-20.0 45.0)
           (-30.0 30.0)
           (-30.0 30.0)
  end
  begin
     id 12 
     name upperback
     direction -0.0139043 0.999634 -0.0231929   
     length 2.21517   
     axis 0 0 0   XYZ
    dof rx ry rz
    limits (-20.0 45.0)
           (-30.0 30.0)
           (-30.0 30.0)
  end
  begin
     id 13 
     name thorax
     direction -0.0143933 0.999691 0.0202892   
     length 2.22911   
     axis 0 0 0   XYZ
    dof rx ry rz
    limits (-20.0 45.0)
           (-30.0 30.0)
           (-30.0 30.0)
  end
  begin
     id 14 
     name lowerneck
     direction -0.0251153 0.981819 0.188153   
     length 1.61782   
     axis 0 0 0   XYZ
    dof rx ry rz
    limits (-20.0 45.0)
           (-30.0 30.0)
           (-30.0 30.0)
  end
  begin
     id 15 
     name upperneck
     direction 0.0563891 0.969357 -0.239095   
     length 1.64526   
     axis 0 0 0   XYZ
    dof rx ry rz
    limits (-20.0 45.0)
           (-30.0 30.0)
           (-30.0 30.0)
  end
  begin
     id 16
     name head
     direction 0.0208328 0.99459 -0.101773  
     length 1.67436  
     axis 0 0 0   XYZ
    dof rx ry rz
    limits (-20.0 45.0)
           (-30.0 30.0)
           (-30.0 30.0)
  end
  begin
     id 17 
     name lclavicle
     direction 0.917689 0.397224 0.00772059  
     length 3.31102  
     axis 0 0 0   XYZ
    dof ry rz
    limits (-20.0 10.0)
           (0.0 20.0)
  end
  begin
     id 18 
     name lhumerus
     direction 1 -4.4896e-011 2.32308e-027   
     length 5.25537   
     axis 180 -30 -90   XYZ
    dof rx ry rz
    limits (-60.0 90.0)
           (-90.0 90.0)
           (-90.0 90.0)
  end
  begin
     id 19
     name lradius
     direction 1 -4.49005e-011 -2.04271e-027   
     length 3.38855   
     axis 180 -30 -90   XYZ
    dof rx
    limits (-10.0 170.0)
  end
  begin
     id 20
     name lwrist
     direction 1 -4.48892e-011 2.56952e-028   
     length 1.69428   
     axis -5.12785e-016 90 90   XYZ
    dof ry
    limits (-180.0 0.0)
 end
  begin
     id 21 
     name lhand
     direction 1 -4.48966e-011 5.13905e-028   
     length 0.614516   
     axis -3.27915e-016 90 90   XYZ
    dof rx rz
    limits (-90.0 90.0)
           (-45.0 45.0)
  end
  begin
     id 22 
     name lfingers
     direction 1 -4.48979e-011 1.02781e-027   
     length 0.495439   
     axis -6.5583e-016 90 90   XYZ
    dof rx
    limits (0.0 90.0)
  end
  begin
     id 23
     name lthumb
     direction 0.707107 -6.35001e-011 0.707107   
     length 0.711354   
     axis -90 45 2.85299e-015   XYZ
    dof rx rz
    limits (-45.0 45.0)
           (-45.0 45.0)
  end
  begin
     id 24 
     name rclavicle
     direction -0.938556 0.342765 -0.0403177   
     length 3.27019  
     axis 0 0 0   XYZ 
    dof ry rz
    limits (-10.0 20.0)
           (-20.0 0.0)
  end
  begin
     id 25 
     name rhumerus
     direction -1 -4.48966e-011 2.52291e-027  
     length 5.38183   
     axis 180 30 90   XYZ
    dof rx ry rz
    limits (-90.0 60.0)
           (-90.0 90.0)
           (-90.0 90.0)
  end
  begin
     id 26 
     name rradius
     direction -1 -4.4896e-011 1.5797e-027   
     length 3.16988   
     axis 180 30 90   XYZ
    dof rx
    limits (-10.0 170.0)
  end
  begin
     id 27 
     name rwrist
     direction -1 -4.48947e-011 2.56952e-028   
     length 1.58494   
     axis -5.12785e-016 -90 -90   XYZ
    dof ry
    limits (-180.0 0.0)
  end
  begin
     id 28
     name rhand
     direction -1 -4.49098e-011 5.13905e-028   
     length 0.637679   
     axis -3.27915e-016 -90 -90   XYZ
    dof rx rz
    limits (-90.0 90.0)
           (-45.0 45.0)
  end
  begin
     id 29
     name rfingers
     direction -1 -4.49026e-011 1.02781e-027   
     length 0.514113   
     axis -6.5583e-016 -90 -90   XYZ
    dof rx
    limits (0.0 90.0)
  end
  begin
     id 30
     name rthumb
     direction -0.707107 -6.3491e-011 0.707107   
     length 0.738167   
     axis -90 -45 -2.85299e-015   XYZ
    dof rx rz
    limits (-45.0 45.0)
           (-45.0 45.0)
  end
:hierarchy
  begin
    root lhipjoint rhipjoint lowerback
    lhipjoint lfemur
    lfemur ltibia
    ltibia lfoot
    lfoot ltoes
    rhipjoint rfemur
    rfemur rtibia
    rtibia rfoot
    rfoot rtoes
    lowerback upperback
    upperback thorax
    thorax lowerneck lclavicle rclavicle
    lowerneck upperneck
    upperneck head
    lclavicle lhumerus
    lhumerus lradius
    lradius lwrist
    lwrist lhand lthumb
    lhand lfingers
    rclavicle rhumerus
    rhumerus rradius
    rradius rwrist
    rwrist rhand rthumb
    rhand rfingers
  end

#!OML:ASF H:\Swim\Project 1\Capture day 1\Session 1\swimmer.ASF
:FULLY-SPECIFIED
:DEGREES
1378
root 4.51964 12.3385 8.47234 74.5455 -3.41129 -1.37745
lowerback 15.3977 -0.125238 -0.819762
upperback -5.48813 -0.747477 -2.83605
thorax -14.9365 -0.453252 -2.5286
lowerneck -28.68 -6.13538 -6.29945
upperneck -2.43268 -7.11808 14.5235
head 4.48123 -2.55499 4.87353
rclavicle -5.1684e-015 1.23246e-014
rhumerus 1.13202 63.3763 1.90505
rradius 114.315
rwrist -43.6272
rhand -17.6748 6.56847
rfingers 7.12502
rthumb 8.58419 -23.237
lclavicle -5.1684e-015 1.23246e-014
lhumerus -2.27972 -57.3784 -1.02269
lradius 115.731
lwrist 25.278
lhand -20.3638 10.077
lfingers 7.12502
lthumb 5.98864 39.9724
rfemur -15.941 -11.0099 4.50711
rtibia 87.0327
rfoot 3.70421 -1.50515
rtoes -12.4884
lfemur -17.6815 13.6088 -8.77684
ltibia 84.1085
lfoot 10.4496 4.05393
ltoes -0.41545
1379
root 4.51878 12.346 8.46102 74.3956 -3.3969 -1.28154
lowerback 15.3025 -0.147154 -0.822688
upperback -5.69808 -0.781988 -2.83015
thorax -15.1304 -0.471137 -2.51519
lowerneck -28.7498 -6.18797 -6.29154
upperneck -2.78226 -7.14927 14.5315
head 4.38279 -2.57958 4.87222
rclavicle -3.57812e-015 -3.97569e-015
rhumerus 2.09538 63.8703 1.52762
rradius 116.469
rwrist -44.6063
rhand -18.4634 6.02489
rfingers 7.12502
rthumb 7.82312 -23.8104
lclavicle -3.57812e-015 -3.97569e-015
lhumerus -1.91236 -57.796 0.00904455
lradius 117.877
lwrist 26.1715
lhand -20.468 10.6194
lfingers 7.12502
lthumb 5.88796 40.5176
rfemur -15.7093 -11.2502 4.38617
rtibia 87.3423
rfoot 3.37462 -1.34186
rtoes -12.5844
lfemur -17.5297 13.6276 -8.71028
ltibia 84.328
lfoot 10.4753 3.96332
ltoes -0.43099
1380
root 4.51856 12.3538 8.44999 74.216 -3.3819 -1.18141
lowerback 15.2155 -0.169395 -0.815848
upperback -5.90308 -0.815057 -2.82492
thorax -15.3244 -0.489327 -2.50847
lowerneck -28.858 -6.24087 -6.27977
upperneck -3.05732 -7.18716 14.5213
head 4.31222 -2.60434 4.86321
rclavicle 3.57812e-015 1.21259e-014
rhumerus 3.23186 64.2526 1.24899
rradius 118.639
rwrist -45.585
rhand -19.305 5.38755
rfingers 7.12502
rthumb 7.01078 -24.4763
lclavicle 3.57812e-015 1.21259e-014
lhumerus -1.39311 -58.0169 1.01731
lradius 119.999
lwrist 27.1364
lhand -20.2871 11.2913
lfingers 7.12502
lthumb 6.06261 41.1845
rfemur -15.4277 -11.5057 4.23345
rtibia 87.6913
rfoot 2.99823 -1.20468
rtoes -12.7398
lfemur -17.3451 13.651 -8.62774
ltibia 84.5942
lfoot 10.4993 3.90348
ltoes -0.399776
1381
root 4.51909 12.3615 8.43936 74.008 -3.37272 -1.08932
lowerback 15.1303 -0.187625 -0.801367
upperback -6.10101 -0.841284 -2.82269
thorax -15.5115 -0.505274 -2.51128
lowerneck -28.985 -6.29422 -6.27066
upperneck -3.27322 -7.22956 14.5011
head 4.26255 -2.62896 4.85055
rclavicle -3.97569e-016 -2.78299e-015
rhumerus 4.50593 64.5033 1.01448
rradius 120.802
rwrist -46.5217
rhand -20.1644 4.61614
rfingers 7.12502
rthumb 6.18112 -25.2737
lclavicle -3.97569e-016 -2.78299e-015
lhumerus -0.746202 -58.0767 2.01576
lradius 122.067
lwrist 28.0654
lhand -19.9694 12.0528
lfingers 7.12502
lthumb 6.36939 41.9371
rfemur -15.0996 -11.7632 4.04294
rtibia 88.0813
rfoot 2.5805 -1.08484
rtoes -12.9493
lfemur -17.1216 13.6926 -8.5312
ltibia 84.9079
lfoot 10.5163 3.87328
ltoes -0.379239
1382
root 4.52034 12.3691 8.42931 73.7735 -3.37462 -1.00926
lowerback 15.0453 -0.201206 -0.78126
upperback -6.29273 -0.860786 -2.82745
thorax -15.692 -0.519181 -2.52703
lowerneck -29.1905 -6.34113 -6.23107
upperneck -3.37145 -7.2803 14.4461
head 4.2575 -2.65259 4.81981
rclavicle -1.07344e-014 -1.51076e-014
rhumerus 5.91251 64.6245 0.828753
rradius 122.943
rwrist -47.4365
rhand -21.0855 3.81802
rfingers 7.12502
rthumb 5.29182 -26.0959
lclavicle -1.07344e-014 -1.51076e-014
lhumerus -0.0147474 -58.0545 3.01701
lradius 124.027
lwrist 28.67
lhand -19.7269 12.8024
lfingers 7.12502
lthumb 6.6035 42.6794
rfemur -14.7274 -12.017 3.80736
rtibia 88.5147
rfoot 2.12477 -0.967676
rtoes -13.2175
lfemur -16.8591 13.7598 -8.4228
ltibia 85.2712
lfoot 10.5356 3.86084
ltoes -0.361243
1383
root 4.52218 12.3766 8.41995 73.5223 -3.38494 -0.948787
lowerback 14.9451 -0.209666 -0.75558
upperback -6.47231 -0.871774 -2.8357
thorax -15.8485 -0.529851 -2.55188
lowerneck -29.4162 -6.39266 -6.20718
upperneck -3.41429 -7.33841 14.4097
head 4.27492 -2.67567 4.79632
rclavicle 3.18055e-015 7.95139e-016
rhumerus 7.45917 64.6102 0.699276
rradius 125.013
rwrist -48.3654
rhand -22.1281 3.21938
rfingers 7.12502
rthumb 4.28506 -26.7173
lclavicle 3.18055e-015 7.95139e-016
lhumerus 0.768289 -57.9963 4.02005
lradius 125.876
lwrist 28.9629
lhand -19.7554 13.4641
lfingers 7.12502
lthumb 6.57599 43.342
rfemur -14.3242 -12.2596 3.53424
rtibia 88.996
rfoot 1.64065 -0.841198
rtoes -13.5261
lfemur -16.5648 13.8619 -8.29618
ltibia 85.6871
lfoot 10.5536 3.84882
ltoes -0.42424
1384
root 4.5243 12.3842 8.41107 73.26 -3.39985 -0.909139
lowerback 14.8278 -0.21462 -0.724726
upperback -6.64204 -0.876218 -2.845
thorax -15.9825 -0.538016 -2.58231
lowerneck -29.6553 -6.44581 -6.19653
upperneck -3.40078 -7.40089 14.3898
head 4.31382 -2.69708 4.7794
rclavicle 7.95139e-016 1.39149e-014
rhumerus 9.13549 64.4403 0.605305
rradius 126.986
rwrist -49.2828
rhand -23.259 2.80858
rfingers 7.12502
rthumb 3.19293 -27.1473
lclavicle 7.95139e-016 1.39149e-014
lhumerus 1.58101 -57.8499 5.03629
lradius 127.655
lwrist 29.3265
lhand -19.9554 14.1023
lfingers 7.12502
lthumb 6.38289 43.9861
rfemur -13.8981 -12.4893 3.23006
rtibia 89.5316
rfoot 1.13552 -0.689453
rtoes -13.8593
lfemur -16.2459 14.001 -8.14345
ltibia 86.1604
lfoot 10.5739 3.81778
ltoes -0.548537
1385
root 4.52639 12.3923 8.40252 72.9935 -3.41192 -0.888554
lowerback 14.6936 -0.217645 -0.688578
upperback -6.80639 -0.875507 -2.84919
thorax -16.099 -0.543934 -2.61105
lowerneck -29.9657 -6.48911 -6.16133
upperneck -3.27123 -7.46557 14.3379
head 4.39563 -2.71471 4.74695
rclavicle 9.93923e-015 -2.28602e-014
rhumerus 10.9124 64.0791 0.513261
rradius 128.847
rwrist -50.1502
rhand -24.4206 2.52228
rfingers 7.12502
rthumb 2.07115 -27.4474
lclavicle 9.93923e-015 -2.28602e-014
lhumerus 2.37809 -57.6538 6.10725
lradius 129.341
lwrist 29.73
lhand -20.3914 14.6582
lfingers 7.12502
lthumb 5.96197 44.5543
rfemur -13.4582 -12.7082 2.90539
rtibia 90.129
rfoot 0.57138 -0.556575
rtoes -14.4738
lfemur -15.9133 14.1727 -7.95481
ltibia 86.6964
lfoot 10.5994 3.75236
ltoes -0.706891
1386
root 4.52815 12.4011 8.39411 72.7284 -3.41982 -0.883706
lowerback 14.5386 -0.219211 -0.651485
upperback -6.96573 -0.870649 -2.84489
thorax -16.196 -0.547307 -2.63138
lowerneck -30.2564 -6.52445 -6.13505
upperneck -3.10248 -7.52114 14.28
head 4.48635 -2.72754 4.71499
rclavicle 2.0276e-014 -4.17448e-015
rhumerus 12.7242 63.4885 0.348564
rradius 130.575
rwrist -50.9553
rhand -25.5439 2.27842
rfingers 7.12502
rthumb 0.986249 -27.699
lclavicle 2.0276e-014 -4.17448e-015
lhumerus 3.17544 -57.3712 7.21863
lradius 130.918
lwrist 30.1568
lhand -20.9745 15.1091
lfingers 7.12502
lthumb 5.39894 45.0203
rfemur -13.011 -12.9175 2.5622
rtibia 90.7967
rfoot -0.0127484 -0.421367
rtoes -15.2171
lfemur -15.5772 14.3752 -7.72783
ltibia 87.3014
lfoot 10.6355 3.63794
ltoes -0.88909
1387
root 4.52943 12.4111 8.38557 72.4653 -3.42332 -0.88639
lowerback 14.3682 -0.2197 -0.618325
upperback -7.12271 -0.863149 -2.83001
thorax -16.2798 -0.548166 -2.63782
lowerneck -30.5243 -6.54802 -6.10992
upperneck -2.88668 -7.56482 14.2001
head 4.58652 -2.7353 4.67735
rclavicle -3.18055e-015 4.21423e-014
rhumerus 14.4923 62.6608 0.0424517
rradius 132.156
rwrist -51.7254
rhand -26.6483 2.11465
rfingers 7.12502
rthumb -0.0804099 -27.8651
lclavicle -3.18055e-015 4.21423e-014
lhumerus 3.99776 -56.974 8.36562
lradius 132.385
lwrist 30.6257
lhand -21.6506 15.5002
lfingers 7.12502
lthumb 4.74615 45.4271
rfemur -12.5571 -13.1235 2.1954
rtibia 91.543
rfoot -0.585681 -0.281715
rtoes -16.0252
lfemur -15.2428 14.5962 -7.46497
ltibia 87.9787
lfoot 10.6912 3.46606
ltoes -1.0729
